<?xml version="1.0" encoding="UTF-8" standalone="no"?>
<!-- Created with Inkscape (http://www.inkscape.org/) -->

<svg
   xmlns:dc="http://purl.org/dc/elements/1.1/"
   xmlns:cc="http://creativecommons.org/ns#"
   xmlns:rdf="http://www.w3.org/1999/02/22-rdf-syntax-ns#"
   xmlns:svg="http://www.w3.org/2000/svg"
   xmlns="http://www.w3.org/2000/svg"
   xmlns:sodipodi="http://sodipodi.sourceforge.net/DTD/sodipodi-0.dtd"
   xmlns:inkscape="http://www.inkscape.org/namespaces/inkscape"
   width="210mm"
   height="297mm"
   viewBox="0 0 744.09448819 1052.3622047"
   id="svg4162"
   version="1.1"
   inkscape:version="0.91 r13725"
   sodipodi:docname="budzi-tag.svg">
  <defs
     id="defs4164" />
  <sodipodi:namedview
     id="base"
     pagecolor="#ffffff"
     bordercolor="#666666"
     borderopacity="1.0"
     inkscape:pageopacity="0.0"
     inkscape:pageshadow="2"
     inkscape:zoom="11.2"
     inkscape:cx="74.912797"
     inkscape:cy="702.71324"
     inkscape:document-units="px"
     inkscape:current-layer="layer1"
     showgrid="false"
     inkscape:window-width="1855"
     inkscape:window-height="1056"
     inkscape:window-x="65"
     inkscape:window-y="24"
     inkscape:window-maximized="1"
     inkscape:object-nodes="true"
     inkscape:snap-smooth-nodes="true" />
  <metadata
     id="metadata4167">
    <rdf:RDF>
      <cc:Work
         rdf:about="">
        <dc:format>image/svg+xml</dc:format>
        <dc:type
           rdf:resource="http://purl.org/dc/dcmitype/StillImage" />
        <dc:title></dc:title>
      </cc:Work>
    </rdf:RDF>
  </metadata>
  <g
     inkscape:label="Calque 1"
     inkscape:groupmode="layer"
     id="layer1">
    <path
       style="fill:#000000;fill-opacity:1;stroke:none;stroke-width:1;stroke-miterlimit:4;stroke-dasharray:none;stroke-opacity:1"
       d="m 60.959563,317.10627 c -0.59171,-0.11511 -2.09424,1.05294 -2.61328,2.93554 0.66627,0.0436 1.15856,0.35048 1.27539,0.79493 0.17033,0.65603 -0.51634,1.40131 -1.5332,1.66406 -1.01662,0.26266 -1.97786,-0.0566 -2.14648,-0.71289 -0.0759,-0.29744 0.0238,-0.62848 0.27929,-0.92774 -0.33575,0.1696 -0.64973,0.35742 -0.93554,0.56641 -0.89295,-1.43346 -3.24065,-2.56154 -4.01172,-2.66602 -0.12925,-0.0175 -0.21221,-0.008 -0.23828,0.0352 -0.53051,0.88056 2.51324,2.05066 3.41015,3.37305 -1.04379,1.13944 -1.45663,2.55492 -1.07812,3.71679 0.27342,0.83927 1.16829,1.52217 2.28906,1.85157 0.36407,0.10702 0.26661,0.29392 0,0.42773 -0.30548,0.15332 -0.60005,0.32914 -0.84766,0.57031 -2.63381,-0.50776 -6.49981,-2.54015 -6.69922,-3.33789 -0.41443,-1.65779 -0.83024,-2.91244 -1.31054,-1.59961 -0.36023,0.9846 -1.04567,-1.06776 -2.06836,-1.12109 -0.3409,-0.0178 -0.71753,0.18656 -1.13477,0.79883 -0.93574,1.37315 0.43758,3.20035 2.65625,3.30078 2.15603,0.0976 5.84569,3.67334 7.13477,5.08203 0.13369,0.14611 0.30327,0.4533 0.13086,0.57422 -2.06021,1.44474 -3.9336,2.06934 -3.9336,3.08398 0,1.21677 3.3624,2.97828 3.07422,3.39453 -0.20621,0.29785 -2.81884,-0.44985 -1.98633,1.11915 0.17654,0.33271 0.41017,0.5846 0.6875,0.75195 -2.12935,0.28058 -4.65337,-0.87297 -6.4746,-2.95703 -0.57417,-0.66073 -0.99606,-1.79834 -1.58008,-1.54297 -0.584,0.25537 0.0709,6.6392 6.27343,10.46484 0.904,0.55757 1.82932,0.96541 2.7461,1.23047 0.0709,1.49371 0.24307,1.85524 -0.70117,2.33594 -1.2453,0.63396 -3.19256,2.19906 -1.94727,2.58398 1.24529,0.38491 3.94111,0.70095 4.71094,0.13477 0.76981,-0.56604 0.92736,-1.60656 0.13476,-2.69336 -0.35695,-0.48952 -0.37035,-1.28516 -0.28125,-2.01367 1.43705,0.10831 2.80545,-0.14251 3.99024,-0.71875 0.93827,1.82546 0.85234,2.5633 0.79492,2.88867 -0.0678,0.38491 0.1999,0.76587 1.60938,0.86133 1.40379,0.0951 2.48925,0.0228 3.40039,-0.006 0.88304,-0.0273 2.21905,-1.31293 0.83789,-1.99219 -1.38114,-0.67925 -2.10975,0.29883 -2.67578,-0.3125 -0.51412,-0.55523 -1.71009,-1.54344 -2.01172,-2.87305 0.5949,-0.63042 1.08663,-1.38931 1.43554,-2.27343 0.27582,-0.69887 0.4459,-1.45443 0.51953,-2.2461 0.66737,-0.0211 1.15041,-0.55824 1.11524,-0.98047 -0.064,-0.76849 -0.62628,-0.51101 -0.76758,-1.06054 -0.28819,-1.1207 2.12583,-3.29806 1.82422,-3.8711 -0.23892,-0.45392 -1.95944,-1.60427 -3.04297,-3.57812 -0.16324,-0.2974 -0.3545,-0.73886 -0.13867,-0.99414 1.4957,-1.76867 5.96752,-4.24338 7.20312,-4.15821 0.86806,0.0598 1.365,-0.0975 2.03125,-0.62109 1.76466,-1.38681 0.1208,-3.19177 -0.73828,-2.78516 -0.52592,0.24893 -0.85981,0.52161 -1.18945,0.36329 -0.26336,-0.12654 0.0259,-0.80448 -0.39649,-0.88282 -0.26235,-0.0486 -0.79132,1.15219 -1.10351,2.37696 -0.36919,1.44832 -5.49835,2.84754 -7.9082,2.88867 -0.17936,-0.10357 -0.37129,-0.18626 -0.56641,-0.25781 -0.24457,-0.0897 -0.31123,-0.26214 0,-0.35938 0.71119,-0.22221 1.54424,-0.57808 2.08203,-1.01367 1.40186,-1.13548 2.3674,-2.07706 2.77344,-3.33399 0.13999,-0.43335 0.30243,-0.69483 -0.0488,-1.15977 -0.32792,-0.43405 -1.61864,0.1341 -2.82617,0.875 -1.20755,0.74091 -1.96976,1.60402 -3.74219,0.98438 -0.84233,-0.29448 -1.23436,-1.16465 -0.0957,-0.60195 1.5047,0.7436 2.52921,-0.31086 3.86523,-1.0957 1.33604,-0.78485 3.16779,-1.29448 3.29224,-0.61853 0.16687,0.9063 0.67776,0.98005 0.38159,-0.3678 -0.13009,-0.59201 -0.89647,-1.32836 -3.84961,-1.32031 -0.34694,9.6e-4 -0.74473,0.0205 -1.1543,0.043 0.63801,-1.70458 2.27037,-2.39396 2.01368,-2.87695 -0.0404,-0.0762 -0.10664,-0.12341 -0.19532,-0.14062 z m -2.625,3.11133 c -0.13592,-9.1e-4 -0.27539,0.0197 -0.41015,0.0605 -0.55646,0.16709 -0.90796,0.634 -0.78516,1.04297 0.12323,0.40881 0.67406,0.60466 1.23047,0.4375 0.55646,-0.16709 0.90796,-0.634 0.78516,-1.04297 -0.0891,-0.29786 -0.4123,-0.49406 -0.82032,-0.49804 z m 2.23829,14.17382 c 0.72885,0.42649 1.23185,1.02239 1.14648,1.38086 -0.0389,0.16344 -0.16849,0.52349 -0.32031,0.97461 -0.27747,-0.71811 -0.71721,-1.37055 -1.03907,-2.08984 -0.0463,-0.10343 0.11442,-0.32326 0.2129,-0.26563 z m -5.92188,0.70899 c 0.24517,1.07842 0.2231,2.11127 -0.0605,3.00195 -0.59827,-1.0607 -2.13019,-1.9443 -1.86718,-2.29883 0.33254,-0.44827 1.19349,-0.62491 1.92773,-0.70312 z"
       id="path4151-2"
       inkscape:connector-curvature="0"
       sodipodi:nodetypes="ccccccccccscsccccssccssscccscsscccccccsccccccccccsccccccssssssssssccccccccccccccccccc"
       inkscape:export-filename="/home/florian/Documents/softozor/shopozor-manager/src/assets/budzi.png"
       inkscape:export-xdpi="124.16615"
       inkscape:export-ydpi="124.16615" />
    <path
       style="opacity:1;fill:#ff0000;fill-opacity:0.2428115;stroke:#000000;stroke-width:1;stroke-linecap:butt;stroke-linejoin:miter;stroke-miterlimit:4;stroke-dasharray:none;stroke-opacity:1"
       d="M 56.695312 315.77734 A 19.755066 19.755066 0 0 0 36.939453 335.5332 A 19.755066 19.755066 0 0 0 47.158203 352.82812 L 56.695312 368.96875 L 66.248047 352.79883 A 19.755066 19.755066 0 0 0 76.449219 335.5332 A 19.755066 19.755066 0 0 0 56.695312 315.77734 z "
       id="path4737"
       inkscape:export-xdpi="98.76667"
       inkscape:export-ydpi="98.76667" />
  </g>
</svg>
